<?xml version="1.0" standalone="no"?>
<!DOCTYPE svg PUBLIC "-//W3C//DTD SVG 20010904//EN"
 "http://www.w3.org/TR/2001/REC-SVG-20010904/DTD/svg10.dtd">
<svg version="1.0" xmlns="http://www.w3.org/2000/svg"
 width="207.000000pt" height="145.000000pt" viewBox="0 0 207.000000 145.000000"
 preserveAspectRatio="xMidYMid meet">
<metadata>
Created by potrace 1.15, written by Peter Selinger 2001-2017
</metadata>
<g transform="translate(0.000000,145.000000) scale(0.100000,-0.100000)"
fill="#000000" stroke="none">
<path d="M680 872 c0 -15 71 -92 128 -138 77 -63 84 -75 92 -160 4 -41 13 -81
20 -89 14 -17 73 -20 117 -5 53 19 75 4 151 -106 11 -16 12 -11 8 34 -7 69
-32 112 -80 136 -33 16 -45 17 -85 8 -25 -6 -49 -8 -53 -6 -5 3 -8 22 -8 43 0
94 -37 147 -139 200 -44 23 -93 53 -110 66 -30 26 -41 30 -41 17z"/>
<path d="M805 598 c-95 -52 -151 -172 -125 -269 58 -218 356 -189 406 39 5 23
2 21 -19 -13 -31 -50 -72 -80 -126 -95 -100 -27 -201 57 -201 167 0 50 40 134
76 161 30 22 23 29 -11 10z"/>
</g>
</svg>
