<svg xmlns="http://www.w3.org/2000/svg" viewBox="0 0 597.45 547.72"><defs><style>.cls-1{fill:#e5e5e5;fill-rule:evenodd;}.cls-2{fill:#ef0000;}.cls-3{fill:#085b24;}</style></defs><title>Asset 1</title><g id="Layer_2" data-name="Layer 2"><g id="Layer_1-2" data-name="Layer 1"><path class="cls-1" d="M511.08,152.18c.12,2.12,1.49,15.63,6.81,19.82,3.57-.65,7.19-1.29,10.91-1.74,34.3-4.44,55.09-22.31,53.14-53.37-2.18-33-26.9-63.82-53.38-76.49-13.74-6.66-21,36.43-33.63,55.6h0a9.6,9.6,0,0,1-5.65,4.11,21.31,21.31,0,0,1,3.08,5.49C497.36,126.6,509.22,117.58,511.08,152.18Z"/><path class="cls-1" d="M596.91,534.9c-32.69-94.36-98-169.54-113.35-266-3.13-19.69-20.14-19.07-37-18.05-18.19,1.19-37.46,5.4-56-4.24a9.65,9.65,0,0,1-2-15.69c14.83-13.58,29.38-26.8,43.61-40.3,10.59-9.76,21.49-21.21,36.92-13.82,11.61,5.61,22.22,4.94,33,3.16a7.64,7.64,0,0,0,6.05-9.75c-.21-.7-2.89-6.86-3-7.57-2.23-20.46-15.68-29.49-20.68-50.49a21.48,21.48,0,0,0-3.08-5.5,9.76,9.76,0,0,1-11.09-4.7c-5-8.89-9-16.75-8.7-24.41,1.17-33.59-19.57-44.11-44.64-57C370.27-3.52,323.5-2,273.14,3.08,215.91,9,179,33.45,158.41,86.87c-21.94,56.68-47.68,111.75-84.08,160.58-22.23,30-46.81,58.33-72.08,88.68a9.65,9.65,0,0,0,6.13,15.74c66.83,9,129.82,18.22,193.11,25.3,81,9.31,91.78,17.64,111.58,96.9,2.74,10.95,3.5,23.47,9.5,32.36,11.3,16.93,19.59,39.61,45,39.89,72.68.79,145.21,1,220.11,1.4A9.68,9.68,0,0,0,596.91,534.9Z"/><path class="cls-2" d="M246.61,212.51s-80.44-3.46-111.93-85.21c0,0-.58,143.41,111.93,85.21Z"/><path class="cls-2" d="M513.48,63.69c-4.58,16.25-13.05,30.75-27,40.48-12.15,8.44-26.44,12.43-39.84,18.31C425,132,407.88,149.23,395.25,168.9c-.06-1.27-.16-3.16-.16-3.86a51,51,0,0,1,.91-9.55c3.75-19.6,16.3-36.24,32.35-47.7,17-12.16,37.19-18.7,54.38-30.52,7.11-4.89,12.71-12.65,17.51-19.73a124.38,124.38,0,0,0,10.3-18.37c.86-1.89,1.66-3.8,2.42-5.73,2.59-6.82,4.27-12.86,4.27-12.86,0,.38.06.76.1,1.13V22a115.94,115.94,0,0,1-3.87,41.69Z"/><path class="cls-3" d="M259.81,119.21c2.5,19.7,19.62,33.76,38.24,31.4s31.68-20.25,29.18-40S307.61,76.9,289,79.26s-31.68,20.25-29.18,39.95Z"/><path d="M373.87,387.4c-28.8,53.33-91.31,75.42-139.62,49.33s-64.13-90.47-35.33-143.8c14-26,36.08-44.56,60.58-53.75-38.63,5.72-75.51,30.74-96.81,70.19-34.14,63.21-15.4,139.51,41.86,170.43S335.88,484.54,370,421.34a139.21,139.21,0,0,0,16.9-72.52,119.46,119.46,0,0,1-13,38.58Z"/><path class="cls-3" d="M403.49,54.93c-16.74,41.58-42,67.23-63.74,82.65a58.26,58.26,0,0,0-22.5,63.17v0c107.4-62.84,86.23-145.85,86.23-145.85Z"/><path class="cls-3" d="M383.41,274c-16.76-2.71-33.62,1.2-49.37,6.17a16,16,0,0,1-6.44.93c-6.7-.7-8.38-7.07-8.77-12.84-2.62-38.7-5.38-72-33.43-98.69-21.67-20.63-54.48-28.42-79.21-45.44-18.61-12.82-38.29-24.08-54.59-40-2-1.93-3.91-3.9-5.79-5.93l-.17-.19c2.3,21.62,17.17,40.56,31.5,55.9,16.54,17.7,35.52,33.38,55,47.72,3.53,2.6,7.07,5.19,10.51,7.9,16.87,13.28,27.79,28.93,30.46,50.53,2.75,22.19.59,44.6,7.76,66.18,10.1,30.4,45.68,22.44,71.24,13.74,22.74-7.75,42-2.84,55.94,12.92,24.89,28.08,43.78,74.64,43.78,74.64,0-73.76-14-124.79-68.39-133.58Z"/><path class="cls-2" d="M355,208.81S401.3,190.25,421,148.76c0,0-10,72.65-66.06,60.05Z"/></g></g></svg>